<svg xmlns="http://www.w3.org/2000/svg" xmlns:xlink="http://www.w3.org/1999/xlink" width="100px" height="px" viewBox="0 0 100 100" version="1.1"><g id="surface1"><path style=" stroke:none;fill-rule:nonzero;fill:rgb(0%,0%,0%);fill-opacity:1;" d="M 0 75 L 0 69.480469 C 0 66.769531 1.457031 64.582031 4.375 62.917969 C 7.292969 61.25 11.042969 60.417969 15.625 60.417969 C 16.527344 60.417969 17.359375 60.433594 18.125 60.46875 C 18.890625 60.503906 19.652344 60.589844 20.417969 60.730469 C 19.859375 61.910156 19.445312 63.109375 19.167969 64.324219 C 18.890625 65.539062 18.75 66.839844 18.75 68.230469 L 18.75 75 Z M 25 75 L 25 68.230469 C 25 63.714844 27.308594 60.070312 31.925781 57.292969 C 36.546875 54.515625 42.570312 53.125 50 53.125 C 57.5 53.125 63.542969 54.515625 68.125 57.292969 C 72.707031 60.070312 75 63.714844 75 68.230469 L 75 75 Z M 81.25 75 L 81.25 68.230469 C 81.25 66.839844 81.128906 65.539062 80.886719 64.324219 C 80.640625 63.109375 80.242188 61.910156 79.6875 60.730469 C 80.453125 60.589844 81.214844 60.503906 81.980469 60.46875 C 82.742188 60.433594 83.542969 60.417969 84.375 60.417969 C 89.097656 60.417969 92.882812 61.25 95.730469 62.917969 C 98.578125 64.582031 100 66.769531 100 69.480469 L 100 75 Z M 50 59.375 C 44.445312 59.375 39.929688 60.207031 36.457031 61.875 C 32.984375 63.542969 31.25 65.660156 31.25 68.230469 L 31.25 68.75 L 68.75 68.75 L 68.75 68.125 C 68.75 65.625 67.03125 63.542969 63.59375 61.875 C 60.15625 60.207031 55.625 59.375 50 59.375 Z M 15.625 57.292969 C 13.609375 57.292969 11.890625 56.578125 10.46875 55.15625 C 9.046875 53.734375 8.332031 52.015625 8.332031 50 C 8.332031 47.984375 9.046875 46.265625 10.46875 44.84375 C 11.890625 43.421875 13.609375 42.707031 15.625 42.707031 C 17.640625 42.707031 19.359375 43.421875 20.78125 44.84375 C 22.203125 46.265625 22.917969 47.984375 22.917969 50 C 22.917969 52.015625 22.203125 53.734375 20.78125 55.15625 C 19.359375 56.578125 17.640625 57.292969 15.625 57.292969 Z M 84.375 57.292969 C 82.359375 57.292969 80.640625 56.578125 79.21875 55.15625 C 77.796875 53.734375 77.082031 52.015625 77.082031 50 C 77.082031 47.984375 77.796875 46.265625 79.21875 44.84375 C 80.640625 43.421875 82.359375 42.707031 84.375 42.707031 C 86.390625 42.707031 88.109375 43.421875 89.53125 44.84375 C 90.953125 46.265625 91.667969 47.984375 91.667969 50 C 91.667969 52.015625 90.953125 53.734375 89.53125 55.15625 C 88.109375 56.578125 86.390625 57.292969 84.375 57.292969 Z M 50 50 C 46.527344 50 43.578125 48.785156 41.144531 46.355469 C 38.714844 43.921875 37.5 40.972656 37.5 37.5 C 37.5 33.957031 38.714844 30.988281 41.144531 28.59375 C 43.578125 26.199219 46.527344 25 50 25 C 53.542969 25 56.511719 26.199219 58.90625 28.59375 C 61.300781 30.988281 62.5 33.957031 62.5 37.5 C 62.5 40.972656 61.300781 43.921875 58.90625 46.355469 C 56.511719 48.785156 53.542969 50 50 50 Z M 50 31.25 C 48.265625 31.25 46.789062 31.839844 45.574219 33.019531 C 44.359375 34.203125 43.75 35.695312 43.75 37.5 C 43.75 39.234375 44.359375 40.710938 45.574219 41.925781 C 46.789062 43.140625 48.265625 43.75 50 43.75 C 51.804688 43.75 53.296875 43.140625 54.480469 41.925781 C 55.660156 40.710938 56.25 39.234375 56.25 37.5 C 56.25 35.695312 55.660156 34.203125 54.480469 33.019531 C 53.296875 31.839844 51.804688 31.25 50 31.25 Z M 50 68.75 Z M 50 37.5 Z M 50 37.5 "/></g></svg>
