<?xml version="1.0" encoding="UTF-8"?>
<svg xmlns="http://www.w3.org/2000/svg" xmlns:xlink="http://www.w3.org/1999/xlink" width="100px" height="px" viewBox="0 0 100 100" version="1.1">
<g id="surface1">
<path style=" stroke:none;fill-rule:nonzero;fill:rgb(0%,0%,0%);fill-opacity:1;" d="M 50 91.667969 C 44.304688 91.667969 38.921875 90.574219 33.855469 88.386719 C 28.785156 86.199219 24.359375 83.210938 20.574219 79.425781 C 16.789062 75.640625 13.800781 71.214844 11.613281 66.144531 C 9.425781 61.078125 8.332031 55.695312 8.332031 50 C 8.332031 44.234375 9.425781 38.835938 11.613281 33.800781 C 13.800781 28.765625 16.789062 24.359375 20.574219 20.574219 C 24.359375 16.789062 28.785156 13.800781 33.855469 11.613281 C 38.921875 9.425781 44.304688 8.332031 50 8.332031 C 55.765625 8.332031 61.164062 9.425781 66.199219 11.613281 C 71.234375 13.800781 75.640625 16.789062 79.425781 20.574219 C 83.210938 24.359375 86.199219 28.765625 88.386719 33.800781 C 90.574219 38.835938 91.667969 44.234375 91.667969 50 C 91.667969 55.695312 90.574219 61.078125 88.386719 66.144531 C 86.199219 71.214844 83.210938 75.640625 79.425781 79.425781 C 75.640625 83.210938 71.234375 86.199219 66.199219 88.386719 C 61.164062 90.574219 55.765625 91.667969 50 91.667969 Z M 71.355469 40.3125 L 78.542969 37.8125 L 80.417969 31.144531 C 78.054688 27.464844 75.140625 24.324219 71.667969 21.71875 C 68.195312 19.113281 64.269531 17.117188 59.894531 15.730469 L 53.125 20.207031 L 53.125 27.5 Z M 28.75 40.3125 L 46.875 27.5 L 46.875 20.207031 L 40.207031 15.730469 C 35.832031 17.117188 31.910156 19.113281 28.4375 21.71875 C 24.964844 24.324219 22.046875 27.464844 19.6875 31.144531 L 21.980469 37.8125 Z M 23.125 73.644531 L 29.375 72.917969 L 33.4375 66.144531 L 26.980469 46.25 L 19.582031 43.75 L 14.582031 47.8125 C 14.582031 52.8125 15.140625 57.378906 16.25 61.511719 C 17.359375 65.640625 19.652344 69.6875 23.125 73.644531 Z M 50 85.417969 C 51.875 85.417969 53.765625 85.242188 55.675781 84.894531 C 57.585938 84.546875 59.582031 84.097656 61.667969 83.542969 L 65.105469 76.042969 L 61.769531 70.3125 L 38.332031 70.3125 L 35 76.042969 L 38.4375 83.542969 C 40.242188 84.097656 42.152344 84.546875 44.167969 84.894531 C 46.179688 85.242188 48.125 85.417969 50 85.417969 Z M 38.957031 64.0625 L 60.625 64.0625 L 66.980469 45 L 50 32.8125 L 32.707031 45 Z M 76.980469 73.644531 C 80.382812 69.6875 82.640625 65.640625 83.75 61.511719 C 84.859375 57.378906 85.417969 52.8125 85.417969 47.8125 L 80.417969 44.375 L 73.125 46.25 L 66.667969 66.144531 L 70.625 72.917969 Z M 76.980469 73.644531 "/>
</g>
</svg>
